<svg width="601" height="601" viewBox="0 0 601 601" fill="none" xmlns="http://www.w3.org/2000/svg">
<circle cx="300.5" cy="300.5" r="300.5" fill="#F5F4F0"/>
<path d="M453.206 437.934C437.616 432.019 431.141 427.085 425.333 430.431C424.856 430.705 424.226 431.074 423.538 431.754C418.172 437.057 424.197 446.484 421.045 452.764C419.45 455.943 415.125 459.071 403.625 459.588H235.809C222.914 459.588 212.461 449.137 212.461 436.24V166.146C212.461 153.251 222.912 142.797 235.809 142.797H247.608C254.052 142.797 259.281 137.568 259.281 131.124V130.89C259.281 128.742 257.537 127 255.391 127H130.622C128.473 127 126.731 128.744 126.731 130.89V131.124C126.731 137.568 131.96 142.797 138.404 142.797H150.203C163.098 142.797 173.552 153.249 173.552 166.146V436.24C173.552 449.135 163.1 459.588 150.203 459.588H137.673C131.245 459.588 126.029 464.779 126 471.201C125.993 473.372 127.719 475.154 129.89 475.154H442.609C445.928 475.057 448.607 474.571 450.484 474.13C460.782 471.702 472.302 464.532 475.052 454.393C475.385 453.162 475.551 452.528 475.475 451.628C475.038 446.358 467.485 443.352 453.206 437.934Z" fill="#002B55"/>
</svg>
